<svg width="20" height="17" viewBox="0 0 20 17" fill="none" xmlns="http://www.w3.org/2000/svg">
<path fill-rule="evenodd" clip-rule="evenodd" d="M2.18555 0.737305C3.74555 0.319305 10 0.319336 10 0.319336C10 0.319336 16.2545 0.319305 17.8145 0.737305C18.6745 0.967305 19.352 1.64488 19.582 2.50488C20 4.06488 20 8.31934 20 8.31934C20 8.31934 20 12.5738 19.582 14.1338C19.352 14.9938 18.6745 15.6714 17.8145 15.9014C16.2545 16.3194 10 16.3193 10 16.3193C10 16.3193 3.74555 16.3194 2.18555 15.9014C1.32555 15.6714 0.647969 14.9948 0.417969 14.1338C-3.1352e-05 12.5738 0 8.31934 0 8.31934C0 8.31934 -3.1352e-05 4.06488 0.417969 2.50488C0.647969 1.64488 1.32455 0.967305 2.18555 0.737305ZM17.2969 2.66895C16.4909 2.45295 12.882 2.31934 10 2.31934C7.118 2.31934 3.50813 2.45295 2.70312 2.66895C2.53312 2.71395 2.39461 2.85251 2.34961 3.02051C2.10861 3.92051 2 6.66134 2 8.31934C2 9.97734 2.10861 12.7182 2.34961 13.6162C2.39561 13.7862 2.53413 13.9247 2.70312 13.9697C3.51012 14.1857 7.119 14.3193 10 14.3193C12.882 14.3193 16.4919 14.1857 17.2969 13.9697C17.4669 13.9237 17.6054 13.7852 17.6504 13.6162C17.8914 12.7172 18 9.97734 18 8.31934C18 6.66134 17.8914 3.92046 17.6504 3.02246C17.6044 2.85246 17.4659 2.71395 17.2969 2.66895ZM14 8.31934L8 11.7842V4.85449L14 8.31934Z" fill="#1D1D1D"/>
</svg>
